# xmcd
#
# Track frame offsets:
#	150
#	47580
#	75650
#	110135
#	135017
#	157286
#	177581
#	209489
#	227826
#
# Disc length: 3278 seconds
#
# Revision: 1
# Processed by: cddbd v1.5.1PL0 Copyright (c) Steve Scherf et al.
# Submitted via: audiograbber 1.83.01
#
DISCID=7a0ccc09
DTITLE=No Debate - No Debate
DYEAR=2004
DGENRE=Blues
TTITLE0=Lay Down the Funk
TTITLE1=Wave
TTITLE2=Gibralter
TTITLE3=Recorda-me
TTITLE4=All Blues
TTITLE5=Make Me a Memory
TTITLE6=Red Clay
TTITLE7=Green Dolphin Street
TTITLE8=Tune Up
EXTD=
EXTT0=
EXTT1=
EXTT2=
EXTT3=
EXTT4=
EXTT5=
EXTT6=
EXTT7=
EXTT8=
PLAYORDER=
